<svg xmlns="http://www.w3.org/2000/svg" viewBox="0 0 135 155"><defs><style>.cls-1,.cls-2,.cls-3{fill:none;stroke-width:5px;}.cls-1,.cls-2{stroke:#3f7c9e;stroke-linejoin:round;}.cls-2,.cls-3{stroke-linecap:round;}.cls-3,.cls-4{stroke:#000;stroke-miterlimit:10;}</style></defs><g id="Layer_2" data-name="Layer 2"><g id="light-mode"><g id="icon"><g id="glass"><polygon class="cls-1" points="117.5 152.5 17.5 152.5 2.5 2.5 132.5 2.5 117.5 152.5"/><path class="cls-2" d="M106.17,17.5H118l-9,113.69c-.54,6.84-7.73,12.31-16,12.31H42c-8.25,0-15.44-5.47-16-12.31L17,17.5H30.07"/><line class="cls-2" x1="24" y1="100" x2="111" y2="100"/></g><g id="wi-fi"><path class="cls-3" d="M36.56,45.31a43.82,43.82,0,0,1,61.82-.08"/><path class="cls-3" d="M45.4,54.15A31.3,31.3,0,0,1,89.49,54"/><path class="cls-3" d="M54.24,63a18.79,18.79,0,0,1,26.37-.16"/><circle class="cls-4" cx="67.51" cy="74.26" r="5"/></g></g></g></g></svg>