<svg xmlns="http://www.w3.org/2000/svg" viewBox="0 0 410.25 183.16"><defs><style>.cls-1,.cls-2,.cls-3{fill:none;stroke-width:5px;}.cls-1,.cls-2{stroke:#3f7c9e;stroke-linejoin:round;}.cls-2,.cls-3{stroke-linecap:round;}.cls-3,.cls-4{stroke:#000;stroke-miterlimit:10;}.cls-10,.cls-5{font-size:65px;font-family:Bahnschrift;}.cls-6{letter-spacing:-0.02em;}.cls-7{letter-spacing:-0.02em;}.cls-8{letter-spacing:-0.02em;}.cls-9{letter-spacing:0.02em;}.cls-10{letter-spacing:-0.02em;}.cls-11{letter-spacing:0em;}.cls-12{letter-spacing:-0.02em;}.cls-13{letter-spacing:0em;}.cls-14{letter-spacing:-0.02em;}.cls-15{letter-spacing:-0.01em;}.cls-16{letter-spacing:-0.02em;}.cls-17{letter-spacing:-0.02em;}.cls-18{letter-spacing:-0.01em;}.cls-19{letter-spacing:-0.01em;}.cls-20{letter-spacing:-0.02em;}</style></defs><g id="Layer_2" data-name="Layer 2"><g id="light-mode"><g id="icon"><g id="glass"><polygon class="cls-1" points="117.5 169.01 17.5 169.01 2.5 19.02 132.5 19.02 117.5 169.01"/><path class="cls-2" d="M106.17,34H118L109,147.7c-.54,6.85-7.73,12.32-16,12.32H42c-8.25,0-15.44-5.47-16-12.32L17,34H30.07"/><line class="cls-2" x1="24" y1="116.52" x2="111" y2="116.52"/></g><g id="wi-fi"><path class="cls-3" d="M36.56,61.82a43.82,43.82,0,0,1,61.82-.08"/><path class="cls-3" d="M45.4,70.66a31.3,31.3,0,0,1,44.09-.12"/><path class="cls-3" d="M54.24,79.51a18.78,18.78,0,0,1,26.37-.16"/><circle class="cls-4" cx="67.51" cy="90.77" r="5"/></g></g><g id="text"><text class="cls-5" transform="translate(142.25 55.57)"><tspan class="cls-6">s</tspan><tspan class="cls-7" x="32.59" y="0">m</tspan><tspan class="cls-8" x="86.95" y="0">a</tspan><tspan class="cls-9" x="120.3" y="0">r</tspan><tspan x="149.62" y="0">t</tspan></text><text class="cls-10" transform="translate(136.57 110.57)">d<tspan class="cls-11" x="33.85" y="0">r</tspan><tspan x="61.79" y="0">i</tspan><tspan class="cls-12" x="76.91" y="0">n</tspan><tspan class="cls-13" x="111.99" y="0">k</tspan></text><text class="cls-5" transform="translate(131.1 165.57)"><tspan class="cls-14">d</tspan><tspan class="cls-15" x="33.84" y="0">i</tspan><tspan class="cls-6" x="49.43" y="0">s</tspan><tspan class="cls-16" x="82.02" y="0">p</tspan><tspan class="cls-17" x="116.16" y="0">e</tspan><tspan class="cls-18" x="149.56" y="0">n</tspan><tspan class="cls-19" x="185.16" y="0">s</tspan><tspan class="cls-20" x="218.02" y="0">e</tspan><tspan x="251.41" y="0">r</tspan></text></g></g></g></svg>